<svg xmlns="http://www.w3.org/2000/svg" viewBox="0 0 96 119" fill="none">
  <path fill="#152a45" d="M58.663 101.9v16.83H37.626V101.9a4.22 4.22 0 0 1 4.207-4.207h12.622a4.22 4.22 0 0 1 4.208 4.208M69.96 22.244a31.586 31.586 0 0 0-21.815-8.697c-17.403 0-31.556 14.157-31.556 31.555 0 8.43 3.282 16.355 9.24 22.314 5.958 5.96 13.884 9.24 22.316 9.24 17.403 0 31.556-14.158 31.556-31.556a31.842 31.842 0 0 0-9.74-22.857zm-.358 24.12c-2.809-3.745-6.184-6.164-9.425-7.753a13.598 13.598 0 0 1 1.643 6.49c-.001 7.543-6.135 13.676-13.675 13.676-7.54 0-13.674-6.133-13.674-13.675 0-2.351.595-4.56 1.641-6.49-5.642 2.93-8.903 7.058-9.43 7.758a2.1 2.1 0 0 1-2.944.42 2.106 2.106 0 0 1-.421-2.945c1.556-2.073 10.061-12.412 24.824-12.412 2.593 0 15.961.6 24.824 12.412A2.104 2.104 0 0 1 69.6 46.37z"/>
  <path fill="#152a45" d="M57.611 45.1a9.468 9.468 0 1 1-18.934.224 9.468 9.468 0 0 1 18.934-.224"/>
  <path fill="#152a45" d="M48.145.923C23.784.923 3.968 20.74 3.968 45.1c0 19.417 12.432 36.352 30.966 42.157a8.294 8.294 0 0 1 5.68 6.332 5.9 5.9 0 0 1 1.22-.105h12.623c.421 0 .821.022 1.22.105a8.294 8.294 0 0 1 5.681-6.332C79.891 81.452 92.325 64.516 92.325 45.1 92.323 20.739 72.505.923 48.145.923m0 79.94c-9.557 0-18.54-3.718-25.292-10.47-6.752-6.752-10.47-15.737-10.47-25.292 0-19.721 16.04-35.763 35.762-35.763a35.789 35.789 0 0 1 24.723 9.86A36.083 36.083 0 0 1 83.908 45.1c0 19.721-16.042 35.762-35.763 35.762"/>
</svg>
